<mxfile host="app.diagrams.net" agent="Mozilla/5.0 (Windows NT 10.0; Win64; x64) AppleWebKit/537.36 (KHTML, like Gecko) Chrome/122.0.0.0 Safari/537.36 Avast/122.0.0.0" version="24.7.6">
  <diagram name="Page-1" id="HU0vnhwrFwJsnhGwSz_W">
    <mxGraphModel dx="1621" dy="424" grid="1" gridSize="10" guides="1" tooltips="1" connect="1" arrows="1" fold="1" page="1" pageScale="1" pageWidth="827" pageHeight="1169" math="0" shadow="0">
      <root>
        <mxCell id="0" />
        <mxCell id="1" parent="0" />
        <mxCell id="r6_27RtD-l4ZRtJK59Fg-1" value="Windows 10 Client&lt;div&gt;Wuzah Agent&lt;/div&gt;" style="fontColor=#0066CC;verticalAlign=top;verticalLabelPosition=bottom;labelPosition=center;align=center;html=1;outlineConnect=0;fillColor=#CCCCCC;strokeColor=#6881B3;gradientColor=none;gradientDirection=north;strokeWidth=2;shape=mxgraph.networks.pc;" vertex="1" parent="1">
          <mxGeometry x="345" y="480" width="100" height="70" as="geometry" />
        </mxCell>
        <mxCell id="r6_27RtD-l4ZRtJK59Fg-16" style="edgeStyle=orthogonalEdgeStyle;rounded=0;orthogonalLoop=1;jettySize=auto;html=1;entryX=0.5;entryY=1;entryDx=0;entryDy=0;shape=link;fillColor=#f5f5f5;gradientColor=#b3b3b3;strokeColor=#666666;" edge="1" parent="1" source="r6_27RtD-l4ZRtJK59Fg-2" target="r6_27RtD-l4ZRtJK59Fg-7">
          <mxGeometry relative="1" as="geometry" />
        </mxCell>
        <mxCell id="r6_27RtD-l4ZRtJK59Fg-2" value="Router" style="sketch=0;aspect=fixed;pointerEvents=1;shadow=0;dashed=0;html=1;strokeColor=none;labelPosition=center;verticalLabelPosition=bottom;verticalAlign=top;align=center;fillColor=#00188D;shape=mxgraph.mscae.enterprise.router" vertex="1" parent="1">
          <mxGeometry x="362.95" y="320" width="64.1" height="50" as="geometry" />
        </mxCell>
        <mxCell id="r6_27RtD-l4ZRtJK59Fg-21" style="rounded=0;orthogonalLoop=1;jettySize=auto;html=1;exitX=0.5;exitY=1;exitDx=0;exitDy=0;entryX=0.5;entryY=0;entryDx=0;entryDy=0;shape=link;fillColor=#d5e8d4;gradientColor=#97d077;strokeColor=#82b366;" edge="1" parent="1" source="r6_27RtD-l4ZRtJK59Fg-4" target="r6_27RtD-l4ZRtJK59Fg-7">
          <mxGeometry relative="1" as="geometry" />
        </mxCell>
        <mxCell id="r6_27RtD-l4ZRtJK59Fg-22" value="4. Enrich IOC" style="edgeLabel;html=1;align=center;verticalAlign=middle;resizable=0;points=[];" vertex="1" connectable="0" parent="r6_27RtD-l4ZRtJK59Fg-21">
          <mxGeometry x="-0.0625" relative="1" as="geometry">
            <mxPoint as="offset" />
          </mxGeometry>
        </mxCell>
        <mxCell id="r6_27RtD-l4ZRtJK59Fg-24" style="rounded=0;orthogonalLoop=1;jettySize=auto;html=1;exitX=1;exitY=1;exitDx=0;exitDy=0;entryX=0.5;entryY=0;entryDx=0;entryDy=0;shape=link;fillColor=#dae8fc;gradientColor=#7ea6e0;strokeColor=#6c8ebf;" edge="1" parent="1" source="r6_27RtD-l4ZRtJK59Fg-4" target="r6_27RtD-l4ZRtJK59Fg-6">
          <mxGeometry relative="1" as="geometry" />
        </mxCell>
        <mxCell id="r6_27RtD-l4ZRtJK59Fg-25" value="5. Send alerts" style="edgeLabel;html=1;align=center;verticalAlign=middle;resizable=0;points=[];" vertex="1" connectable="0" parent="r6_27RtD-l4ZRtJK59Fg-24">
          <mxGeometry x="-0.0215" y="-2" relative="1" as="geometry">
            <mxPoint as="offset" />
          </mxGeometry>
        </mxCell>
        <mxCell id="r6_27RtD-l4ZRtJK59Fg-26" style="rounded=0;orthogonalLoop=1;jettySize=auto;html=1;exitX=0.75;exitY=1;exitDx=0;exitDy=0;entryX=1;entryY=0.75;entryDx=0;entryDy=0;shape=link;fillColor=#ffcd28;gradientColor=#ffa500;strokeColor=#d79b00;" edge="1" parent="1" source="r6_27RtD-l4ZRtJK59Fg-4" target="r6_27RtD-l4ZRtJK59Fg-7">
          <mxGeometry relative="1" as="geometry">
            <Array as="points">
              <mxPoint x="470" y="130" />
            </Array>
          </mxGeometry>
        </mxCell>
        <mxCell id="r6_27RtD-l4ZRtJK59Fg-28" value="6. Send&lt;div&gt;Email&lt;/div&gt;" style="edgeLabel;html=1;align=center;verticalAlign=middle;resizable=0;points=[];" vertex="1" connectable="0" parent="r6_27RtD-l4ZRtJK59Fg-26">
          <mxGeometry x="0.453" y="5" relative="1" as="geometry">
            <mxPoint x="-1" as="offset" />
          </mxGeometry>
        </mxCell>
        <mxCell id="r6_27RtD-l4ZRtJK59Fg-35" style="edgeStyle=orthogonalEdgeStyle;rounded=0;orthogonalLoop=1;jettySize=auto;html=1;exitX=0;exitY=0.5;exitDx=0;exitDy=0;entryX=0.5;entryY=0;entryDx=0;entryDy=0;fillColor=#f8cecc;gradientColor=#ea6b66;strokeColor=#b85450;shape=link;" edge="1" parent="1" source="r6_27RtD-l4ZRtJK59Fg-4" target="r6_27RtD-l4ZRtJK59Fg-5">
          <mxGeometry relative="1" as="geometry" />
        </mxCell>
        <mxCell id="r6_27RtD-l4ZRtJK59Fg-36" value="9. Send Responsive Action" style="edgeLabel;html=1;align=center;verticalAlign=middle;resizable=0;points=[];" vertex="1" connectable="0" parent="r6_27RtD-l4ZRtJK59Fg-35">
          <mxGeometry x="0.3077" y="1" relative="1" as="geometry">
            <mxPoint x="-1" y="34" as="offset" />
          </mxGeometry>
        </mxCell>
        <mxCell id="r6_27RtD-l4ZRtJK59Fg-4" value="Shuffle" style="image;aspect=fixed;perimeter=ellipsePerimeter;html=1;align=center;shadow=0;dashed=0;spacingTop=3;image=img/lib/active_directory/internet_cloud.svg;" vertex="1" parent="1">
          <mxGeometry x="370" y="20" width="50" height="31.5" as="geometry" />
        </mxCell>
        <mxCell id="r6_27RtD-l4ZRtJK59Fg-19" style="rounded=0;orthogonalLoop=1;jettySize=auto;html=1;entryX=0;entryY=0.75;entryDx=0;entryDy=0;shape=link;fillColor=#dae8fc;gradientColor=#7ea6e0;strokeColor=#6c8ebf;" edge="1" parent="1" source="r6_27RtD-l4ZRtJK59Fg-5" target="r6_27RtD-l4ZRtJK59Fg-4">
          <mxGeometry relative="1" as="geometry" />
        </mxCell>
        <mxCell id="r6_27RtD-l4ZRtJK59Fg-20" value="3. Send Events" style="edgeLabel;html=1;align=center;verticalAlign=middle;resizable=0;points=[];" vertex="1" connectable="0" parent="r6_27RtD-l4ZRtJK59Fg-19">
          <mxGeometry x="-0.0875" y="3" relative="1" as="geometry">
            <mxPoint as="offset" />
          </mxGeometry>
        </mxCell>
        <mxCell id="r6_27RtD-l4ZRtJK59Fg-5" value="Wuzah&amp;nbsp;&lt;div&gt;Manager&lt;/div&gt;" style="image;aspect=fixed;perimeter=ellipsePerimeter;html=1;align=center;shadow=0;dashed=0;spacingTop=3;image=img/lib/active_directory/internet_cloud.svg;" vertex="1" parent="1">
          <mxGeometry x="120" y="170" width="50" height="31.5" as="geometry" />
        </mxCell>
        <mxCell id="r6_27RtD-l4ZRtJK59Fg-6" value="The Hive" style="image;aspect=fixed;perimeter=ellipsePerimeter;html=1;align=center;shadow=0;dashed=0;spacingTop=3;image=img/lib/active_directory/internet_cloud.svg;" vertex="1" parent="1">
          <mxGeometry x="620" y="170" width="50" height="31.5" as="geometry" />
        </mxCell>
        <mxCell id="r6_27RtD-l4ZRtJK59Fg-17" style="edgeStyle=orthogonalEdgeStyle;rounded=0;orthogonalLoop=1;jettySize=auto;html=1;shape=link;fillColor=#f5f5f5;gradientColor=#b3b3b3;strokeColor=#666666;" edge="1" parent="1" source="r6_27RtD-l4ZRtJK59Fg-7" target="r6_27RtD-l4ZRtJK59Fg-5">
          <mxGeometry relative="1" as="geometry" />
        </mxCell>
        <mxCell id="r6_27RtD-l4ZRtJK59Fg-18" value="2. Receive events" style="edgeLabel;html=1;align=center;verticalAlign=middle;resizable=0;points=[];" vertex="1" connectable="0" parent="r6_27RtD-l4ZRtJK59Fg-17">
          <mxGeometry x="0.2733" y="3" relative="1" as="geometry">
            <mxPoint as="offset" />
          </mxGeometry>
        </mxCell>
        <mxCell id="r6_27RtD-l4ZRtJK59Fg-33" style="rounded=0;orthogonalLoop=1;jettySize=auto;html=1;exitX=0.25;exitY=0;exitDx=0;exitDy=0;entryX=0;entryY=0.75;entryDx=0;entryDy=0;shape=link;fillColor=#f8cecc;gradientColor=#ea6b66;strokeColor=#b85450;" edge="1" parent="1" source="r6_27RtD-l4ZRtJK59Fg-7" target="r6_27RtD-l4ZRtJK59Fg-4">
          <mxGeometry relative="1" as="geometry">
            <Array as="points">
              <mxPoint x="330" y="130" />
            </Array>
          </mxGeometry>
        </mxCell>
        <mxCell id="r6_27RtD-l4ZRtJK59Fg-7" value="Internet" style="image;aspect=fixed;perimeter=ellipsePerimeter;html=1;align=center;shadow=0;dashed=0;spacingTop=3;image=img/lib/active_directory/internet_cloud.svg;" vertex="1" parent="1">
          <mxGeometry x="370" y="170" width="50" height="31.5" as="geometry" />
        </mxCell>
        <mxCell id="r6_27RtD-l4ZRtJK59Fg-29" style="rounded=0;orthogonalLoop=1;jettySize=auto;html=1;entryX=1;entryY=1;entryDx=0;entryDy=0;shape=link;fillColor=#ffcd28;gradientColor=#ffa500;strokeColor=#d79b00;" edge="1" parent="1" source="r6_27RtD-l4ZRtJK59Fg-11" target="r6_27RtD-l4ZRtJK59Fg-7">
          <mxGeometry relative="1" as="geometry" />
        </mxCell>
        <mxCell id="r6_27RtD-l4ZRtJK59Fg-30" value="7. Send and Receive Email" style="edgeLabel;html=1;align=center;verticalAlign=middle;resizable=0;points=[];" vertex="1" connectable="0" parent="r6_27RtD-l4ZRtJK59Fg-29">
          <mxGeometry x="0.0258" y="4" relative="1" as="geometry">
            <mxPoint y="1" as="offset" />
          </mxGeometry>
        </mxCell>
        <mxCell id="r6_27RtD-l4ZRtJK59Fg-31" style="rounded=0;orthogonalLoop=1;jettySize=auto;html=1;exitX=0;exitY=0.5;exitDx=0;exitDy=0;exitPerimeter=0;entryX=0.75;entryY=1;entryDx=0;entryDy=0;shape=link;fillColor=#f8cecc;gradientColor=#ea6b66;strokeColor=#b85450;" edge="1" parent="1" source="r6_27RtD-l4ZRtJK59Fg-11" target="r6_27RtD-l4ZRtJK59Fg-7">
          <mxGeometry relative="1" as="geometry">
            <Array as="points">
              <mxPoint x="450" y="320" />
            </Array>
          </mxGeometry>
        </mxCell>
        <mxCell id="r6_27RtD-l4ZRtJK59Fg-32" value="8. Send Response&amp;nbsp;&lt;div&gt;Action&lt;/div&gt;" style="edgeLabel;html=1;align=center;verticalAlign=middle;resizable=0;points=[];" vertex="1" connectable="0" parent="r6_27RtD-l4ZRtJK59Fg-31">
          <mxGeometry x="-0.3013" y="7" relative="1" as="geometry">
            <mxPoint y="-1" as="offset" />
          </mxGeometry>
        </mxCell>
        <mxCell id="r6_27RtD-l4ZRtJK59Fg-11" value="SOC Analyst" style="fontColor=#0066CC;verticalAlign=top;verticalLabelPosition=bottom;labelPosition=center;align=center;html=1;outlineConnect=0;fillColor=#CCCCCC;strokeColor=#6881B3;gradientColor=none;gradientDirection=north;strokeWidth=2;shape=mxgraph.networks.pc;" vertex="1" parent="1">
          <mxGeometry x="620" y="310" width="100" height="70" as="geometry" />
        </mxCell>
        <mxCell id="r6_27RtD-l4ZRtJK59Fg-14" style="edgeStyle=orthogonalEdgeStyle;rounded=0;orthogonalLoop=1;jettySize=auto;html=1;entryX=0.5;entryY=0.71;entryDx=0;entryDy=0;entryPerimeter=0;shape=link;fillColor=#f5f5f5;gradientColor=#b3b3b3;strokeColor=#666666;" edge="1" parent="1" source="r6_27RtD-l4ZRtJK59Fg-1" target="r6_27RtD-l4ZRtJK59Fg-2">
          <mxGeometry relative="1" as="geometry" />
        </mxCell>
        <mxCell id="r6_27RtD-l4ZRtJK59Fg-15" value="1. Send Events" style="edgeLabel;html=1;align=center;verticalAlign=middle;resizable=0;points=[];" vertex="1" connectable="0" parent="r6_27RtD-l4ZRtJK59Fg-14">
          <mxGeometry x="-0.0361" y="1" relative="1" as="geometry">
            <mxPoint as="offset" />
          </mxGeometry>
        </mxCell>
        <mxCell id="r6_27RtD-l4ZRtJK59Fg-37" style="rounded=0;orthogonalLoop=1;jettySize=auto;html=1;exitX=0.5;exitY=1;exitDx=0;exitDy=0;entryX=0.12;entryY=0.84;entryDx=0;entryDy=0;entryPerimeter=0;fillColor=#f8cecc;gradientColor=#ea6b66;strokeColor=#b85450;shape=link;" edge="1" parent="1" source="r6_27RtD-l4ZRtJK59Fg-5" target="r6_27RtD-l4ZRtJK59Fg-2">
          <mxGeometry relative="1" as="geometry">
            <Array as="points" />
          </mxGeometry>
        </mxCell>
        <mxCell id="r6_27RtD-l4ZRtJK59Fg-38" value="10. Perform Response Action" style="edgeLabel;html=1;align=center;verticalAlign=middle;resizable=0;points=[];" vertex="1" connectable="0" parent="r6_27RtD-l4ZRtJK59Fg-37">
          <mxGeometry x="-0.1113" y="-1" relative="1" as="geometry">
            <mxPoint as="offset" />
          </mxGeometry>
        </mxCell>
        <mxCell id="r6_27RtD-l4ZRtJK59Fg-39" value="Windows 10&lt;div&gt;Send Events&lt;/div&gt;" style="text;html=1;align=center;verticalAlign=middle;resizable=0;points=[];autosize=1;strokeColor=none;fillColor=none;" vertex="1" parent="1">
          <mxGeometry x="-150" y="713" width="90" height="40" as="geometry" />
        </mxCell>
        <mxCell id="r6_27RtD-l4ZRtJK59Fg-45" style="edgeStyle=orthogonalEdgeStyle;rounded=0;orthogonalLoop=1;jettySize=auto;html=1;" edge="1" parent="1" source="r6_27RtD-l4ZRtJK59Fg-40" target="r6_27RtD-l4ZRtJK59Fg-43">
          <mxGeometry relative="1" as="geometry" />
        </mxCell>
        <mxCell id="r6_27RtD-l4ZRtJK59Fg-40" value="Wuzah Manager&lt;div&gt;Trigger alerts &amp;amp; Perform response actions&lt;/div&gt;" style="text;html=1;align=center;verticalAlign=middle;resizable=0;points=[];autosize=1;strokeColor=none;fillColor=none;" vertex="1" parent="1">
          <mxGeometry x="-20" y="713" width="250" height="40" as="geometry" />
        </mxCell>
        <mxCell id="r6_27RtD-l4ZRtJK59Fg-43" value="Shuffle&amp;nbsp;&lt;div&gt;Receive Wuzah Alerts &amp;amp; Send response actions&lt;/div&gt;" style="text;html=1;align=center;verticalAlign=middle;resizable=0;points=[];autosize=1;strokeColor=none;fillColor=none;" vertex="1" parent="1">
          <mxGeometry x="274" y="713" width="280" height="40" as="geometry" />
        </mxCell>
        <mxCell id="r6_27RtD-l4ZRtJK59Fg-44" style="edgeStyle=orthogonalEdgeStyle;rounded=0;orthogonalLoop=1;jettySize=auto;html=1;entryX=0.001;entryY=0.508;entryDx=0;entryDy=0;entryPerimeter=0;" edge="1" parent="1" source="r6_27RtD-l4ZRtJK59Fg-39" target="r6_27RtD-l4ZRtJK59Fg-40">
          <mxGeometry relative="1" as="geometry" />
        </mxCell>
        <mxCell id="r6_27RtD-l4ZRtJK59Fg-46" value="OSINT&amp;nbsp;&lt;div&gt;Enrich IOC&lt;/div&gt;" style="text;html=1;align=center;verticalAlign=middle;resizable=0;points=[];autosize=1;strokeColor=none;fillColor=none;" vertex="1" parent="1">
          <mxGeometry x="374" y="633" width="80" height="40" as="geometry" />
        </mxCell>
        <mxCell id="r6_27RtD-l4ZRtJK59Fg-48" style="edgeStyle=orthogonalEdgeStyle;rounded=0;orthogonalLoop=1;jettySize=auto;html=1;entryX=0.5;entryY=0.675;entryDx=0;entryDy=0;entryPerimeter=0;" edge="1" parent="1" source="r6_27RtD-l4ZRtJK59Fg-43" target="r6_27RtD-l4ZRtJK59Fg-46">
          <mxGeometry relative="1" as="geometry" />
        </mxCell>
        <mxCell id="r6_27RtD-l4ZRtJK59Fg-49" value="The Hive&lt;div&gt;Creat alert in case management&lt;/div&gt;" style="text;html=1;align=center;verticalAlign=middle;resizable=0;points=[];autosize=1;strokeColor=none;fillColor=none;" vertex="1" parent="1">
          <mxGeometry x="315" y="803" width="190" height="40" as="geometry" />
        </mxCell>
        <mxCell id="r6_27RtD-l4ZRtJK59Fg-51" style="edgeStyle=orthogonalEdgeStyle;rounded=0;orthogonalLoop=1;jettySize=auto;html=1;entryX=0.521;entryY=0.175;entryDx=0;entryDy=0;entryPerimeter=0;" edge="1" parent="1" source="r6_27RtD-l4ZRtJK59Fg-43" target="r6_27RtD-l4ZRtJK59Fg-49">
          <mxGeometry relative="1" as="geometry" />
        </mxCell>
        <mxCell id="r6_27RtD-l4ZRtJK59Fg-52" value="Email&lt;div&gt;Send email &amp;amp; responsive action&lt;/div&gt;" style="text;html=1;align=center;verticalAlign=middle;resizable=0;points=[];autosize=1;strokeColor=none;fillColor=none;" vertex="1" parent="1">
          <mxGeometry x="555" y="713" width="190" height="40" as="geometry" />
        </mxCell>
      </root>
    </mxGraphModel>
  </diagram>
</mxfile>
